<?xml version="1.0" encoding="utf-8"?>
<!-- Generator: Adobe Illustrator 24.0.2, SVG Export Plug-In . SVG Version: 6.00 Build 0)  -->
<svg version="1.1" id="Warstwa_1" xmlns="http://www.w3.org/2000/svg" xmlns:xlink="http://www.w3.org/1999/xlink" x="0px" y="0px"
	 viewBox="0 0 430 430" style="enable-background:new 0 0 430 430;" xml:space="preserve">
<style type="text/css">
	.st0{fill:#4BB3FD;}
	.st1{opacity:0.5;}
	.st2{opacity:0;}
	.st3{fill:#121331;}
	.st4{fill:#3A3347;}
	.st5{fill:#F28BA8;}
	.st6{fill:#ffc738;}
	.st7{fill:#faddd1;}
	.st8{fill:#2CA58D;}
	.st9{fill:#F24C00;}
	.st10{fill:#b4b4b4;}
	.st11{fill:#646e78;}
	.st12{opacity:0.4;}
	.st13{fill:#B26836;}
	.st14{opacity:0.8;}
</style>
<g>
	<path class="st10" d="M247.44,53.33h-64.88c-1.93,0-3.5,1.57-3.5,3.5v42.81c0,1.93,1.57,3.5,3.5,3.5h64.88c1.93,0,3.5-1.57,3.5-3.5
		V56.83C250.94,54.9,249.37,53.33,247.44,53.33z"/>
</g>
<g class="st1">
	<path class="st10" d="M199.84,53.33h-17.28c-1.93,0-3.5,1.57-3.5,3.5v42.81c0,1.93,1.57,3.5,3.5,3.5h17.28V53.33z"/>
</g>
<g>
	<path class="st6" d="M247.44,96.14h-64.88h-3.5v3.5v3.5v213.85c0,1.93,1.57,3.5,3.5,3.5h64.88c1.93,0,3.5-1.57,3.5-3.5V101.97
		v-2.33v-3.5H247.44z"/>
</g>
<g class="st1">
	<g>
		<path class="st6" d="M199.84,96.14h-17.28h-3.5v3.5v3.5v213.85c0,1.93,1.57,3.5,3.5,3.5h17.28V96.14z"/>
	</g>
</g>
<g>
	<path class="st9" d="M215,227.62c-1.93,0-3.5-1.57-3.5-3.5v-97.48c0-1.93,1.57-3.5,3.5-3.5s3.5,1.57,3.5,3.5v97.48
		C218.5,226.06,216.93,227.62,215,227.62z"/>
</g>
<g>
	<path class="st7" d="M247.44,313.49h-64.88h-3.5v3.5c0,0.6,0.16,1.21,0.47,1.75l32.44,56.18c0.62,1.08,1.78,1.75,3.03,1.75
		s2.41-0.67,3.03-1.75l32.44-56.18c0.31-0.54,0.47-1.15,0.47-1.75v-3.5H247.44z"/>
</g>
<g class="st1">
	<path class="st7" d="M199.84,313.49h-17.28h-3.5v3.5c0,0.6,0.16,1.21,0.47,1.75l32.44,56.18c0.62,1.08,1.78,1.75,3.03,1.75
		c0,0,0,0,0,0L199.84,313.49z"/>
</g>
<g>
	<path class="st4" d="M215,227.62c-1.93,0-3.5-1.57-3.5-3.5v-97.48c0-1.93,1.57-3.5,3.5-3.5s3.5,1.57,3.5,3.5v97.48
		C218.5,226.06,216.93,227.62,215,227.62z"/>
</g>
<g>
	<path class="st3" d="M247.44,320.49h-64.88c-1.93,0-3.5-1.57-3.5-3.5V99.64c0-1.93,1.57-3.5,3.5-3.5h64.88c1.93,0,3.5,1.57,3.5,3.5
		v217.35C250.94,318.92,249.37,320.49,247.44,320.49z M186.06,313.49h57.88V103.14h-57.88V313.49z"/>
</g>
<g>
	<path class="st3" d="M247.44,103.14h-64.88c-1.93,0-3.5-1.57-3.5-3.5V56.83c0-1.93,1.57-3.5,3.5-3.5h64.88c1.93,0,3.5,1.57,3.5,3.5
		v42.81C250.94,101.57,249.37,103.14,247.44,103.14z M186.06,96.14h57.88V60.33h-57.88V96.14z"/>
</g>
<g>
	<path class="st4" d="M230.86,352.7l-12.83,22.22c-0.62,1.08-1.78,1.75-3.03,1.75s-2.41-0.67-3.03-1.75l-12.83-22.22H230.86z"/>
</g>
<g class="st1">
	<path class="st11" d="M215,376.67c-0.94,0-1.82-0.38-2.47-1.02c-0.22-0.22-0.4-0.46-0.56-0.73l-12.83-22.22h10.11L215,376.67z"/>
</g>
<g>
	<path class="st3" d="M215,376.67c-1.25,0-2.41-0.67-3.03-1.75l-32.44-56.18c-0.62-1.08-0.62-2.42,0-3.5s1.78-1.75,3.03-1.75h64.88
		c1.25,0,2.41,0.67,3.03,1.75s0.62,2.42,0,3.5l-32.44,56.18C217.41,376,216.25,376.67,215,376.67z M188.62,320.49L215,366.17
		l26.38-45.68H188.62z"/>
</g>
</svg>
